<svg width="57" height="58" viewBox="0 0 57 58" fill="none" xmlns="http://www.w3.org/2000/svg">
<g clip-path="url(#clip0)">
<path d="M40.7461 44.5859C40.1316 44.5859 39.6328 45.0847 39.6328 45.6992C39.6328 46.3138 40.1316 46.8125 40.7461 46.8125C41.3606 46.8125 41.8594 46.3138 41.8594 45.6992C41.8594 45.0847 41.3606 44.5859 40.7461 44.5859Z" fill="#C6D1DE"/>
<path d="M43.4872 40.9859L38.1958 39.2225L36.2962 35.4232C38.0075 33.6814 39.1957 31.3766 39.5964 28.9727L39.8333 27.5527H41.8594C43.701 27.5527 45.1992 26.0545 45.1992 24.2129V17.1992C45.1992 7.99127 37.708 0.5 28.5 0.5C19.2684 0.5 11.8008 7.96978 11.8008 17.1992V24.2129C11.8008 25.6642 12.7316 26.9017 14.0273 27.3612V28.666C14.0273 30.5076 15.5256 32.0059 17.3672 32.0059H18.3449C18.8275 33.0542 19.4521 34.0252 20.2123 34.8975C20.3699 35.0787 20.5344 35.2544 20.7028 35.4253L18.8042 39.2225L13.5127 40.986C7.36013 43.0376 2.89453 49.5145 2.89453 56.3867C2.89453 57.0016 3.39295 57.5 4.00781 57.5H52.9922C53.6069 57.5 54.1055 57.0016 54.1055 56.3867C54.1055 49.5145 49.64 43.0376 43.4872 40.9859ZM42.9727 24.2129C42.9727 24.8268 42.4732 25.3262 41.8594 25.3262H40.1603C40.4433 23.1341 40.6319 20.8015 40.7077 18.504C40.7099 18.4392 40.7117 18.3762 40.7137 18.3125H42.9727V24.2129ZM15.1406 25.3262C14.5268 25.3262 14.0273 24.8268 14.0273 24.2129V18.3125H16.2871C16.2908 18.4286 16.2947 18.5453 16.299 18.6627C16.2991 18.6667 16.2993 18.6706 16.2994 18.6747C16.2994 18.675 16.2994 18.6753 16.2994 18.6757C16.3774 20.9102 16.5635 23.1823 16.84 25.3261H15.1406V25.3262ZM17.3672 29.7793C16.7533 29.7793 16.2539 29.2799 16.2539 28.666V27.5527H17.1666L17.4035 28.9732C17.4487 29.2431 17.5042 29.5121 17.5685 29.7793H17.3672ZM16.2558 16.0859H14.0696C14.6335 8.62461 20.8603 2.72656 28.5 2.72656C36.1057 2.72656 42.3599 8.62384 42.9302 16.0859H40.7443C40.6642 9.93762 35.6574 4.95312 29.4965 4.95312H27.5037C21.3429 4.95312 16.3358 9.93762 16.2558 16.0859ZM27.5036 7.17969H29.4964C34.4849 7.17969 38.5224 11.26 38.5195 16.2429C38.5195 16.5933 38.5167 16.8983 38.5108 17.1758C38.5108 17.1794 38.5107 17.1831 38.5107 17.1868L37.1182 16.9878C33.3353 16.4476 29.7635 14.6617 27.0606 11.9589C26.8518 11.7502 26.5687 11.6328 26.2734 11.6328C23.2836 11.6328 20.4216 12.995 18.5297 15.2964C18.9959 10.7632 22.8282 7.17969 27.5036 7.17969ZM19.8765 29.7793C19.3192 27.9254 18.6815 22.4703 18.5406 18.9746L20.0389 16.9767C21.4151 15.1424 23.556 14.0028 25.8335 13.872C28.8301 16.7237 32.7068 18.607 36.8034 19.1919L38.4424 19.4261C38.3328 21.7512 38.109 24.0844 37.7882 26.2303C37.7881 26.2309 37.788 26.2317 37.7879 26.2325C37.6859 26.9224 37.6055 27.3664 37.4002 28.6065C36.8106 32.1428 34.1719 35.3407 30.6886 36.2116C29.255 36.5695 27.7447 36.5694 26.312 36.2116C24.1369 35.6679 22.1426 34.163 20.8555 32.0059H23.1251C23.5846 33.3016 24.8221 34.2324 26.2734 34.2324H28.5C30.3453 34.2324 31.8398 32.738 31.8398 30.8926C31.8398 29.051 30.3416 27.5527 28.5 27.5527H26.2734C24.7898 27.5527 23.5706 28.511 23.1232 29.7793H19.8765ZM26.1798 38.4647C26.9434 38.6255 27.7219 38.7078 28.5 38.7078C29.1091 38.7078 29.7183 38.6568 30.3205 38.558L28.3534 40.6384L26.1798 38.4647ZM26.8228 42.2568L23.2917 45.991C22.3196 44.1303 21.4843 42.1937 20.7992 40.2112L22.1252 37.5591L26.8228 42.2568ZM34.6861 37.1819L36.2006 40.2111C35.5143 42.1969 34.6788 44.1342 33.7077 45.9927L29.9283 42.2133L34.6861 37.1819ZM25.1602 30.8926C25.1602 30.2779 25.6587 29.7793 26.2734 29.7793H28.5C29.1139 29.7793 29.6133 30.2787 29.6133 30.8926C29.6133 31.5073 29.1146 32.0059 28.5 32.0059H26.2734C25.6596 32.0059 25.1602 31.5064 25.1602 30.8926ZM5.16563 55.2734C5.60682 49.7584 9.2772 44.7455 14.2168 43.0983L18.9031 41.5365C19.7616 43.9106 20.8253 46.2181 22.0718 48.4099C22.0739 48.4137 22.0759 48.4175 22.078 48.4212C22.078 48.4213 22.0781 48.4213 22.0781 48.4214C22.9889 50.0233 24.014 51.5887 25.1254 53.0748L26.495 55.2734H5.16563ZM28.5 54.2811L26.9902 51.8571C26.9732 51.8299 26.9552 51.8036 26.9361 51.778C26.0345 50.5754 25.1936 49.3177 24.4276 48.0304L28.3979 43.8318L32.5814 48.0153C31.8103 49.3119 30.9665 50.5748 30.0642 51.7777C30.0096 51.8504 30.087 51.7359 28.5 54.2811ZM30.505 55.2734L31.8745 53.0749C32.9908 51.5831 34.0232 50.0052 34.9431 48.3845C34.9487 48.3747 34.9539 48.3646 34.9595 48.3548C34.9601 48.3536 34.9608 48.3525 34.9615 48.3513C36.1922 46.1804 37.2447 43.8929 38.0969 41.5365L42.7831 43.0983C47.7228 44.7455 51.3932 49.7584 51.8344 55.2734H30.505Z" fill="#C6D1DE"/>
<path d="M48.4887 50.7681C47.7447 49.2788 46.6549 47.9558 45.3371 46.9421C44.8497 46.567 44.1507 46.6582 43.7759 47.1456C43.401 47.633 43.4921 48.3319 43.9794 48.7068C45.0319 49.5165 45.9023 50.5734 46.4967 51.7631C46.772 52.3141 47.4411 52.5358 47.9901 52.2615C48.5401 51.9868 48.7633 51.3181 48.4887 50.7681Z" fill="#C6D1DE"/>
</g>
<defs>
<clipPath id="clip0">
<rect width="57" height="57" fill="white" transform="translate(0 0.5)"/>
</clipPath>
</defs>
</svg>
