<svg width="57" height="56" viewBox="0 0 57 56" fill="none" xmlns="http://www.w3.org/2000/svg">
<g clip-path="url(#clip0)">
<path d="M26.2457 38.818C26.681 38.3904 26.681 37.6982 26.2457 37.2705C25.81 36.8441 25.1041 36.8441 24.6679 37.2705C24.2331 37.6982 24.2331 38.3904 24.6679 38.818C25.1041 39.2444 25.81 39.2444 26.2457 38.818Z" fill="#C6D1DE"/>
<path d="M20.9648 12.8637C20.9648 19.4958 26.4676 24.8919 33.2314 24.8919C39.9952 24.8919 45.498 19.4958 45.498 12.8637C45.498 6.23151 39.9952 0.835815 33.2314 0.835815C26.4676 0.835815 20.9648 6.23151 20.9648 12.8637ZM43.2679 12.8637C43.2679 18.2901 38.7656 22.7048 33.2314 22.7048C27.6973 22.7048 23.1949 18.2901 23.1949 12.8637C23.1949 7.43762 27.6973 3.02289 33.2314 3.02289C38.7656 3.02289 43.2679 7.43762 43.2679 12.8637Z" fill="#C6D1DE"/>
<path d="M12.8447 56.5124C13.2769 56.9397 13.9806 56.9444 14.4185 56.5214L19.825 51.2988C20.7435 50.3981 21.0228 49.0647 20.6189 47.9056L21.7819 46.8058C22.408 46.2128 23.2324 45.886 24.1038 45.886H38.9286C41.5586 45.886 44.0444 44.8956 45.929 43.0973C46.0065 43.0234 45.3403 43.7929 56.0426 31.2507C57.63 29.4092 57.3925 26.6441 55.5128 25.0859C53.6448 23.5423 50.8466 23.764 49.2549 25.5738L42.6745 32.2056C41.8436 31.2028 40.5765 30.5778 39.2074 30.5778H26.7722C25.0028 29.8519 23.1252 29.4844 21.188 29.4844C15.8181 29.4844 11.1292 31.9163 8.6129 36.4759C7.55278 36.2789 6.4347 36.5934 5.63035 37.3821L0.32538 42.5992C-0.107733 43.0251 -0.108604 43.7143 0.323637 44.1415L12.8447 56.5124ZM21.1875 31.6711C22.8956 31.6711 24.547 32.0082 26.0969 32.673C26.238 32.7336 26.3901 32.7648 26.5439 32.7648H39.2074C40.4166 32.7648 41.4379 33.7317 41.4379 34.9515C41.4379 36.1576 40.4375 37.1385 39.2074 37.1385H30.109C29.4933 37.1385 28.994 37.6282 28.994 38.2319C28.994 38.836 29.4933 39.3252 30.109 39.3252H39.2074C41.6671 39.3252 43.668 37.3633 43.668 34.9515C43.668 34.7592 43.654 34.5687 43.6287 34.3798C49.9943 27.9639 50.8919 27.0624 50.9302 27.0175C51.725 26.0976 53.1359 25.981 54.0744 26.7569C55.0138 27.5358 55.1328 28.9183 54.3359 29.8433L44.3338 41.5678C42.8732 42.9427 40.9556 43.6993 38.9286 43.6993H24.1038C22.6511 43.6993 21.276 44.2441 20.2329 45.2323L19.2851 46.1291L10.5488 37.5632C12.5906 33.8073 16.422 31.6711 21.1875 31.6711ZM7.20855 38.9274C7.5763 38.5668 8.14101 38.5019 8.58937 38.7736C8.7824 38.889 8.22815 38.3942 18.2481 48.2055C18.6939 48.6426 18.6699 49.339 18.2542 49.7466L13.6451 54.1989L2.68789 43.3729L7.20855 38.9274Z" fill="#C6D1DE"/>
<path d="M31.8936 6.30328V7.5846C30.5955 8.03577 29.6631 9.25128 29.6631 10.677C29.6631 12.4855 31.1637 13.9574 33.0086 13.9574C33.6234 13.9574 34.1236 14.4479 34.1236 15.0507C34.1236 15.6536 33.6234 16.144 33.0086 16.144C32.5323 16.144 32.0177 15.8505 31.5607 15.3169C31.1642 14.8546 30.4609 14.7952 29.9894 15.1836C29.518 15.5724 29.457 16.262 29.8535 16.7242C30.4496 17.4194 31.1507 17.9039 31.8936 18.1483V19.4244C31.8936 20.0286 32.3929 20.5178 33.0086 20.5178C33.6243 20.5178 34.1236 20.0286 34.1236 19.4244V18.1431C35.4216 17.6915 36.3541 16.476 36.3541 15.0507C36.3541 13.2418 34.8535 11.7703 33.0086 11.7703C32.3938 11.7703 31.8936 11.2798 31.8936 10.677C31.8936 10.0742 32.3938 9.58325 33.0086 9.58325C33.4038 9.58325 33.8208 9.78107 34.2147 10.1549C34.6574 10.5749 35.3633 10.5634 35.7916 10.1297C36.2199 9.69562 36.2081 9.00348 35.7659 8.5835C35.1999 8.04645 34.6334 7.74268 34.1236 7.57691V6.30328C34.1236 5.69916 33.6243 5.20953 33.0086 5.20953C32.3929 5.20953 31.8936 5.69916 31.8936 6.30328Z" fill="#C6D1DE"/>
</g>
<defs>
<clipPath id="clip0">
<rect width="57" height="56" fill="white"/>
</clipPath>
</defs>
</svg>
