<svg width="57" height="58" viewBox="0 0 57 58" fill="none" xmlns="http://www.w3.org/2000/svg">
<g clip-path="url(#clip0)">
<g opacity="0.9">
<path d="M52.0994 51.2395L44.5533 33.0215C44.361 32.5575 43.829 32.3369 43.3649 32.5293C42.9007 32.7216 42.6803 33.2537 42.8726 33.7177L49.6945 50.1871L43.472 48.3841C43.0635 48.2656 42.6273 48.4463 42.4222 48.819L39.297 54.4939L31.9771 36.822C40.4256 35.1927 46.8271 27.7441 46.8271 18.8272C46.8272 8.72158 38.6057 0.5 28.5001 0.5C18.3945 0.5 10.1729 8.72158 10.1729 18.8272C10.1729 22.9204 11.522 26.7042 13.7986 29.7582L4.90078 51.2395C4.76701 51.5625 4.83019 51.9336 5.06341 52.1941C5.2965 52.4547 5.65851 52.5585 5.99433 52.4612L13.3356 50.3339L17.0224 57.0292C17.1829 57.3206 17.4889 57.5 17.8189 57.5C17.8357 57.5 17.8525 57.4995 17.8694 57.4987C18.2185 57.4793 18.5256 57.2616 18.6595 56.9385L25.71 39.917C25.9022 39.4528 25.6819 38.9208 25.2178 38.7286C24.7536 38.5363 24.2216 38.7567 24.0294 39.2208L17.703 54.4939L14.578 48.819C14.3728 48.4463 13.9364 48.2656 13.5282 48.3841L7.30569 50.1871L15.1155 31.3324C18.4625 34.9125 23.2241 37.1543 28.5001 37.1543C29.0448 37.1543 29.5835 37.1289 30.1161 37.0822L38.3409 56.9385C38.4746 57.2616 38.7818 57.4793 39.1309 57.4985C39.1478 57.4995 39.1646 57.5 39.1814 57.5C39.5114 57.5 39.8174 57.3206 39.9778 57.0292L43.6648 50.3339L51.006 52.4612C51.3421 52.5586 51.7037 52.4547 51.9369 52.1941C52.1702 51.9336 52.2332 51.5625 52.0994 51.2395ZM11.9921 18.8272C11.9921 9.72466 19.3976 2.31915 28.5001 2.31915C37.6026 2.31915 45.008 9.72466 45.008 18.8272C45.008 27.9297 37.6026 35.3351 28.5001 35.3351C19.3976 35.3351 11.9921 27.9297 11.9921 18.8272Z" fill="#C6D1DE"/>
<path d="M39.0098 15.4123C38.9051 15.09 38.6296 14.8525 38.2952 14.7963L32.1747 13.7693L29.3067 8.26584C29.15 7.9652 28.8392 7.77661 28.5001 7.77661C28.1611 7.77661 27.8501 7.9652 27.6935 8.26584L24.8253 13.7693L18.7049 14.7963C18.3706 14.8524 18.0951 15.0898 17.9904 15.4123C17.8856 15.7348 17.9688 16.0887 18.2064 16.3306L22.5541 20.759L21.6397 26.8973C21.5897 27.2327 21.7304 27.5679 22.0047 27.7672C22.2788 27.9664 22.6413 27.9966 22.9447 27.8456L28.5001 25.079L34.0553 27.8456C34.1837 27.9095 34.3224 27.941 34.4607 27.941C34.6495 27.941 34.8371 27.8823 34.9954 27.7674C35.2697 27.568 35.4104 27.2328 35.3604 26.8974L34.4461 20.7591L38.7939 16.3306C39.0313 16.0887 39.1145 15.7348 39.0098 15.4123ZM32.8306 19.8079C32.6307 20.0115 32.538 20.297 32.58 20.5791L33.3041 25.4391L28.9056 23.2487C28.7778 23.1852 28.639 23.1533 28.5001 23.1533C28.3612 23.1533 28.2222 23.185 28.0946 23.2487L23.6962 25.4391L24.4202 20.5791C24.4623 20.297 24.3695 20.0114 24.1696 19.8079L20.7272 16.3015L25.5731 15.4882C25.8544 15.441 26.0973 15.2646 26.2292 15.0116L28.5001 10.6543L30.771 15.0117C30.9029 15.2647 31.1457 15.4412 31.4271 15.4883L36.273 16.3016L32.8306 19.8079Z" fill="#C6D1DE"/>
<path d="M42.2784 19.7447C41.7803 19.6781 41.3231 20.0288 41.2573 20.5269C40.4135 26.8948 34.9291 31.697 28.4999 31.697C21.4036 31.697 15.6302 25.9237 15.6302 18.8272C15.6302 11.7307 21.4036 5.95745 28.4999 5.95745C34.9292 5.95745 40.4135 10.7595 41.2573 17.1275C41.3231 17.6256 41.7812 17.9766 42.2784 17.9097C42.7763 17.8438 43.1266 17.3866 43.0605 16.8886C42.0976 9.61977 35.8379 4.13831 28.4999 4.13831C20.4005 4.13831 13.811 10.7276 13.811 18.8272C13.811 26.9268 20.4005 33.516 28.4999 33.516C35.8379 33.516 42.0976 28.0345 43.0606 20.7657C43.1266 20.2678 42.7764 19.8106 42.2784 19.7447Z" fill="#C6D1DE"/>
</g>
</g>
<defs>
<clipPath id="clip0">
<rect width="57" height="57" fill="white" transform="translate(0 0.5)"/>
</clipPath>
</defs>
</svg>
