<svg width="56" height="55" viewBox="0 0 56 55" fill="none" xmlns="http://www.w3.org/2000/svg">
<g opacity="0.9">
<path d="M54.6767 25.7346C53.8384 24.9751 52.6981 24.506 51.548 24.4472C50.2419 24.3809 49.0182 24.8383 48.1069 25.7338L41.8802 31.7851C41.7572 31.5757 41.6166 31.378 41.459 31.1947C40.6929 30.3013 39.5727 29.8095 38.305 29.8095H29.5883C27.9447 29.8095 26.3413 29.6001 24.8228 29.1876C20.864 28.1122 17.082 28.8977 13.8849 31.4607C12.5848 32.503 11.6363 33.6368 11.0365 34.4635L9.47359 32.9738C9.26809 32.7779 8.98952 32.6667 8.70284 32.6667C8.70028 32.6667 8.69814 32.6667 8.69558 32.6667C8.39864 32.6688 8.11153 32.7901 7.9056 32.9999L0.307881 40.7464C0.104512 40.9537 -0.00614506 41.2323 0.000263632 41.5202C0.00667233 41.8085 0.129292 42.0821 0.341633 42.2805L13.1919 54.2979C13.4051 54.4973 13.6786 54.5967 13.9516 54.5967C14.2382 54.5967 14.5249 54.4872 14.7407 54.2698L22.2675 46.6857C22.473 46.4784 22.5871 46.1951 22.5815 45.9056C22.576 45.6203 22.4542 45.345 22.2457 45.1461L21.5903 44.5217L23.0904 44.356C23.9978 44.2523 24.9207 44.1999 25.8341 44.1999H39.0963C41.2513 44.1999 43.0816 43.737 44.5368 42.8239C44.5488 42.8164 44.5608 42.8084 44.5727 42.8004C45.094 42.4446 45.5669 42.0229 45.9779 41.5475L54.9151 31.2211C56.4446 29.4541 56.3489 27.249 54.6767 25.7346ZM13.9229 51.9938L2.66329 41.464L8.7289 35.2792L19.9228 45.948L13.9229 51.9938ZM53.2364 29.8196L44.2993 40.1464C44.0156 40.4741 43.6905 40.7653 43.332 41.012C42.2395 41.6914 40.8147 42.0363 39.0963 42.0363H25.8337C24.8361 42.0363 23.8274 42.0938 22.84 42.2067L19.5425 42.5701L12.6382 35.9896C13.118 35.291 14.0003 34.1618 15.2782 33.1371C17.9348 31.0071 20.9486 30.3798 24.2354 31.2731C25.9452 31.7377 27.7461 31.9735 29.5883 31.9735H38.305C39.8705 31.9735 40.2883 33.3053 40.2883 34.0921C40.2883 34.667 40.1003 35.2142 39.7726 35.5935C39.4171 36.0043 38.9117 36.2125 38.2704 36.2125H30.6825C30.0741 36.2125 29.5811 36.6971 29.5811 37.2946C29.5811 37.8922 30.0741 38.3764 30.6825 38.3764H38.2704C39.5513 38.3764 40.6809 37.8855 41.4517 36.9942C42.093 36.2532 42.4587 35.2788 42.4895 34.2373L49.6608 27.2679C50.6858 26.2612 52.2871 26.5138 53.183 27.3254C53.6462 27.745 54.2691 28.6266 53.2364 29.8196Z" fill="#C6D1DE"/>
<path d="M27.247 37.0064C27.1081 36.4244 26.5156 36.064 25.923 36.1999C25.3308 36.3363 24.9629 36.9183 25.1022 37.5003L25.1125 37.5444C25.2317 38.0429 25.6841 38.3794 26.184 38.3794C26.2673 38.3794 26.3519 38.3702 26.4365 38.3509C27.0291 38.2145 27.3965 37.6321 27.2577 37.0505L27.247 37.0064Z" fill="#C6D1DE"/>
<path d="M7.44611 23.2568H18.1802C18.7647 23.2568 19.3056 23.0705 19.7457 22.7558C20.1857 23.0705 20.7266 23.2568 21.3111 23.2568H32.0457C32.6301 23.2568 33.171 23.0705 33.6111 22.7558C34.0512 23.0705 34.592 23.2568 35.1765 23.2568H45.9107C47.3812 23.2568 48.5775 22.0815 48.5775 20.6372V15.7209C48.5775 13.5129 47.3193 11.5949 45.436 10.6486C46.3486 9.56768 46.898 8.18127 46.898 6.67065C46.898 3.22937 44.0474 0.429688 40.5436 0.429688C37.0397 0.429688 34.1892 3.22937 34.1892 6.67065C34.1892 8.18127 34.7386 9.5681 35.6512 10.6486C34.8373 11.0582 34.1404 11.6494 33.6111 12.3665C33.0817 11.649 32.3849 11.0577 31.5706 10.6486C32.4832 9.5681 33.0326 8.18127 33.0326 6.67065C33.0326 3.22937 30.182 0.429688 26.6782 0.429688C23.1743 0.429688 20.3237 3.22937 20.3237 6.67065C20.3237 8.18127 20.8736 9.5681 21.7862 10.649C20.9719 11.0582 20.275 11.6494 19.7457 12.3669C19.2163 11.6494 18.5195 11.0582 17.7051 10.6486C18.6177 9.5681 19.1672 8.18127 19.1672 6.67107C19.1672 3.22937 16.3166 0.429688 12.8127 0.429688C9.30933 0.429688 6.45874 3.22937 6.45874 6.67107C6.45874 8.18127 7.00818 9.5681 7.92078 10.649C6.03748 11.5953 4.77881 13.5138 4.77881 15.7214V20.6372C4.77881 22.0815 5.97553 23.2568 7.44611 23.2568ZM40.544 2.59365C42.8328 2.59365 44.6951 4.42234 44.6951 6.67065C44.6951 8.91854 42.8328 10.7476 40.544 10.7476C38.2548 10.7476 36.3929 8.91896 36.3929 6.67065C36.3925 4.42234 38.2548 2.59365 40.544 2.59365ZM37.6819 12.2402C38.5428 12.6687 39.5148 12.9116 40.5436 12.9116C41.5728 12.9116 42.5448 12.6687 43.4053 12.2402C45.1173 12.5331 46.3746 13.9821 46.3746 15.7209V20.6372C46.3746 20.8885 46.1666 21.0929 45.9107 21.0929H35.1765C34.921 21.0929 34.713 20.8885 34.713 20.6372V15.7209C34.7125 13.9825 35.9703 12.5331 37.6819 12.2402ZM26.6786 2.59365C28.9674 2.59365 30.8297 4.42234 30.8297 6.67065C30.8297 8.91854 28.9674 10.7476 26.6786 10.7476C24.3894 10.7476 22.5275 8.91896 22.5275 6.67065C22.5275 4.42234 24.3894 2.59365 26.6786 2.59365ZM23.8169 12.2402C24.6774 12.6687 25.6494 12.9116 26.6786 12.9116C27.7078 12.9116 28.6794 12.6687 29.5403 12.2402C31.2518 12.5331 32.5097 13.9821 32.5097 15.7209V20.6372C32.5097 20.8885 32.3016 21.0929 32.0457 21.0929H21.3115C21.0556 21.0929 20.8475 20.8885 20.8475 20.6372V15.7209C20.8475 13.9825 22.1054 12.5331 23.8169 12.2402ZM12.8132 2.59365C15.1019 2.59365 16.9643 4.42234 16.9643 6.67065C16.9643 8.91854 15.1019 10.7476 12.8132 10.7476C10.5244 10.7476 8.66205 8.91854 8.66205 6.67065C8.66205 4.42234 10.5244 2.59365 12.8132 2.59365ZM6.98212 15.7209C6.98212 13.9825 8.23993 12.5331 9.95148 12.2402C10.8124 12.6687 11.7839 12.9116 12.8132 12.9116C13.8424 12.9116 14.814 12.6687 15.6749 12.2402C17.3868 12.5331 18.6442 13.9821 18.6442 15.7209V20.6372C18.6442 20.8885 18.4362 21.0929 18.1802 21.0929H7.44611C7.19019 21.0929 6.98212 20.8885 6.98212 20.6372V15.7209Z" fill="#C6D1DE"/>
</g>
</svg>
